<svg id="svg" version="1.1" xmlns="http://www.w3.org/2000/svg" xmlns:xlink="http://www.w3.org/1999/xlink" width="400" height="400" viewBox="0, 0, 400,400"><g id="svgg"><path id="path0" d="M56.095 135.356 C 53.547 136.430,50.654 139.157,49.471 141.600 L 48.600 143.400 48.486 198.400 C 48.362 258.570,48.230 255.176,50.841 259.215 C 56.864 268.534,70.317 267.437,75.318 257.220 L 76.600 254.600 76.720 225.839 C 76.818 202.165,76.931 197.213,77.357 197.839 C 77.890 198.623,79.473 201.496,82.350 206.900 C 85.018 211.912,87.102 215.820,88.865 219.114 C 89.773 220.811,91.813 224.630,93.400 227.600 C 94.987 230.570,97.027 234.389,97.935 236.086 C 100.468 240.820,102.636 244.891,104.441 248.300 C 108.724 256.389,110.834 258.447,116.030 259.601 C 121.758 260.873,127.452 257.482,130.907 250.740 C 131.736 249.123,133.185 246.360,134.126 244.600 C 135.068 242.840,136.889 239.420,138.172 237.000 C 139.456 234.580,141.180 231.340,142.004 229.800 C 142.828 228.260,144.446 225.200,145.600 223.000 C 146.754 220.800,148.432 217.650,149.328 216.000 C 151.575 211.862,155.726 203.989,157.502 200.496 C 158.314 198.900,159.164 197.655,159.389 197.730 C 159.663 197.821,159.867 207.493,160.000 226.633 C 160.228 259.357,159.978 257.073,163.764 261.120 C 170.757 268.596,182.650 266.441,187.128 256.887 L 188.200 254.600 188.323 200.600 C 188.465 138.365,188.674 141.582,184.232 137.681 C 182.939 136.547,182.106 136.090,179.081 134.856 C 177.645 134.271,173.567 134.267,172.119 134.851 C 165.462 137.531,163.781 139.372,157.189 151.200 C 154.921 155.270,152.736 159.185,152.333 159.900 C 151.170 161.963,150.165 163.753,146.101 171.000 C 144.003 174.740,141.169 179.780,139.803 182.200 C 138.436 184.620,136.867 187.410,136.316 188.400 C 135.764 189.390,134.907 190.920,134.410 191.800 C 133.913 192.680,131.338 197.270,128.687 202.000 C 126.036 206.730,122.952 212.220,121.833 214.200 C 120.714 216.180,119.541 218.299,119.226 218.909 C 118.324 220.660,118.052 220.375,114.531 214.000 C 112.853 210.961,111.595 208.719,107.799 202.000 C 105.997 198.810,103.933 195.120,103.212 193.800 C 102.492 192.480,101.586 190.860,101.201 190.200 C 100.815 189.540,100.052 188.190,99.506 187.200 C 98.960 186.210,98.128 184.725,97.657 183.900 C 96.692 182.211,96.572 181.997,91.307 172.600 C 89.211 168.860,86.376 163.820,85.007 161.400 C 83.638 158.980,82.024 156.100,81.421 155.000 C 70.888 135.810,65.303 131.478,56.095 135.356 M220.800 134.876 C 216.563 136.662,214.827 138.038,213.280 140.835 C 211.549 143.966,211.547 144.044,211.676 200.609 L 211.800 254.617 213.110 257.277 C 218.931 269.102,235.376 267.987,239.261 255.504 C 239.950 253.289,240.000 251.239,240.000 225.141 C 240.000 207.613,240.142 197.240,240.379 197.387 C 240.588 197.516,242.323 200.542,244.236 204.111 C 246.149 207.680,248.296 211.680,249.007 213.000 C 250.430 215.643,252.744 219.982,255.510 225.200 C 256.502 227.070,258.520 230.850,259.994 233.600 C 261.468 236.350,263.629 240.400,264.797 242.600 C 265.964 244.800,267.412 247.500,268.015 248.600 C 268.617 249.700,269.524 251.395,270.030 252.366 C 276.001 263.835,288.461 262.038,295.314 248.720 C 296.367 246.674,298.000 243.560,298.942 241.800 C 299.885 240.040,301.883 236.260,303.382 233.400 C 304.882 230.540,306.603 227.300,307.208 226.200 C 307.814 225.100,309.139 222.625,310.154 220.700 C 320.582 200.927,322.343 197.682,322.808 197.395 C 323.023 197.262,323.217 208.948,323.285 226.086 L 323.400 255.000 324.309 256.953 C 329.878 268.926,346.317 268.264,350.842 255.885 C 351.806 253.249,352.036 146.499,351.085 143.320 C 349.235 137.137,341.137 132.673,335.719 134.849 C 328.653 137.688,327.203 139.298,319.914 152.400 C 319.364 153.390,318.509 154.920,318.015 155.800 C 317.521 156.680,315.402 160.460,313.307 164.200 C 311.211 167.940,308.376 172.980,307.007 175.400 C 305.638 177.820,304.067 180.610,303.516 181.600 C 302.964 182.590,302.158 184.030,301.724 184.800 C 301.290 185.570,299.079 189.530,296.811 193.600 C 294.543 197.670,292.017 202.170,291.199 203.600 C 290.380 205.030,289.261 207.010,288.711 208.000 C 288.162 208.990,287.328 210.475,286.857 211.300 C 286.385 212.125,285.623 213.475,285.161 214.300 C 282.540 218.989,281.909 220.000,281.606 220.000 C 281.291 220.000,279.466 216.987,276.396 211.400 C 275.671 210.080,273.603 206.390,271.801 203.200 C 268.459 197.286,267.215 195.069,265.346 191.700 C 264.766 190.655,263.686 188.755,262.946 187.479 C 262.206 186.202,261.600 185.073,261.600 184.970 C 261.600 184.867,261.176 184.112,260.657 183.291 C 260.138 182.471,257.908 178.560,255.700 174.600 C 253.493 170.640,251.282 166.680,250.787 165.800 C 250.292 164.920,249.438 163.390,248.889 162.400 C 248.339 161.410,247.220 159.430,246.400 158.000 C 245.580 156.570,244.416 154.500,243.812 153.400 C 236.140 139.424,234.502 137.517,227.881 134.851 C 226.495 134.292,222.147 134.308,220.800 134.876 " stroke="none" fill="#fafbfc" fill-rule="evenodd"></path><path id="path1" d="M164.334 79.754 C 80.523 163.754,84.447 159.674,86.004 161.200 C 86.206 161.398,89.765 168.164,90.579 169.897 C 90.810 170.390,91.135 170.795,91.300 170.797 C 91.465 170.799,91.600 171.160,91.600 171.600 C 91.600 172.040,91.780 172.400,92.000 172.400 C 92.220 172.400,92.400 172.745,92.400 173.167 C 92.400 173.588,92.535 173.993,92.700 174.067 C 93.076 174.234,94.375 176.364,94.671 177.300 C 94.793 177.685,95.052 178.000,95.247 178.000 C 95.441 178.000,95.600 178.360,95.600 178.800 C 95.600 179.240,95.736 179.600,95.902 179.600 C 96.069 179.600,96.459 180.185,96.770 180.900 C 97.081 181.615,97.440 182.290,97.568 182.400 C 97.808 182.607,98.148 183.208,100.513 187.600 C 101.283 189.030,102.764 191.730,103.805 193.600 C 104.846 195.470,106.260 198.080,106.946 199.400 C 107.633 200.720,108.286 201.890,108.398 202.000 C 108.650 202.250,109.489 203.716,110.570 205.800 C 111.026 206.680,111.490 207.490,111.600 207.600 C 111.710 207.710,112.187 208.520,112.660 209.400 C 113.133 210.280,113.925 211.720,114.421 212.600 C 114.916 213.480,115.896 215.250,116.599 216.533 C 118.105 219.281,118.315 219.383,119.209 217.800 C 119.582 217.140,120.300 215.880,120.805 215.000 C 121.310 214.120,122.100 212.680,122.562 211.800 C 123.023 210.920,123.490 210.110,123.600 210.000 C 123.710 209.890,124.174 209.080,124.630 208.200 C 125.706 206.127,126.549 204.651,126.801 204.400 C 126.911 204.290,127.270 203.660,127.598 203.000 C 127.927 202.340,129.204 200.000,130.436 197.800 C 132.548 194.030,134.481 190.526,135.952 187.800 C 136.309 187.140,136.690 186.510,136.801 186.400 C 136.911 186.290,137.271 185.660,137.600 185.000 C 137.929 184.340,138.289 183.710,138.399 183.600 C 138.600 183.400,140.129 180.595,140.960 178.903 C 141.202 178.410,141.535 178.005,141.700 178.003 C 141.865 178.001,142.000 177.640,142.000 177.200 C 142.000 176.760,142.159 176.400,142.353 176.400 C 142.548 176.400,142.807 176.085,142.930 175.700 C 143.052 175.315,143.766 173.920,144.516 172.600 C 145.265 171.280,146.237 169.570,146.674 168.800 C 147.489 167.365,149.597 163.540,150.752 161.400 C 151.109 160.740,151.490 160.110,151.600 160.000 C 151.800 159.800,153.331 156.990,154.160 155.303 C 154.402 154.810,154.735 154.405,154.900 154.403 C 155.065 154.401,155.200 154.040,155.200 153.600 C 155.200 153.160,155.346 152.800,155.525 152.800 C 155.704 152.800,156.098 152.170,156.400 151.400 C 156.702 150.630,157.062 150.000,157.200 150.000 C 157.338 150.000,157.698 149.370,158.000 148.600 C 158.302 147.830,158.662 147.200,158.800 147.200 C 158.938 147.200,159.298 146.570,159.600 145.800 C 159.902 145.030,160.252 144.400,160.377 144.400 C 160.502 144.400,160.857 143.830,161.165 143.133 C 161.474 142.436,162.913 140.672,164.363 139.212 C 172.219 131.304,182.864 132.220,187.471 141.200 L 188.600 143.400 188.600 198.600 C 188.600 258.259,188.701 255.357,186.506 258.914 C 180.529 268.602,165.651 268.016,161.035 257.910 C 159.449 254.437,159.448 254.412,159.316 225.805 L 159.189 198.211 157.869 200.805 C 156.234 204.018,152.277 211.519,150.802 214.200 C 149.854 215.923,148.057 219.329,143.941 227.200 C 143.424 228.190,142.907 229.090,142.794 229.200 C 142.681 229.310,141.853 230.840,140.954 232.600 C 140.055 234.360,138.601 237.150,137.722 238.800 C 136.844 240.450,134.899 244.140,133.401 247.000 C 128.900 255.592,125.278 259.600,122.011 259.600 C 121.591 259.600,121.136 259.780,121.000 260.000 C 120.664 260.544,116.304 260.507,114.919 259.949 C 110.412 258.134,107.911 255.951,106.000 252.162 C 105.456 251.083,104.917 250.110,104.803 250.000 C 104.689 249.890,104.042 248.720,103.367 247.400 C 102.691 246.080,100.872 242.660,99.325 239.800 C 97.777 236.940,95.631 232.890,94.555 230.800 C 93.480 228.710,92.465 226.940,92.300 226.867 C 92.135 226.793,92.000 226.388,92.000 225.967 C 92.000 225.545,91.865 225.199,91.700 225.197 C 91.535 225.195,91.199 224.790,90.954 224.297 C 89.724 221.822,87.781 218.177,87.597 218.000 C 87.483 217.890,86.944 216.900,86.400 215.800 C 85.856 214.700,85.318 213.710,85.205 213.600 C 85.092 213.490,84.577 212.590,84.060 211.600 C 80.880 205.509,78.612 201.297,78.141 200.611 C 77.682 199.942,77.597 202.277,77.577 216.011 C 77.546 237.854,77.055 255.505,76.461 256.099 C 76.208 256.352,76.000 256.884,76.000 257.280 C 76.000 257.676,75.820 258.000,75.600 258.000 C 75.380 258.000,75.200 258.239,75.200 258.531 C 75.200 258.822,74.282 260.082,73.160 261.329 C 66.164 269.107,54.077 267.190,49.112 257.515 L 47.822 255.000 47.547 241.400 C 47.396 233.920,47.256 220.872,47.236 212.404 L 47.200 197.008 23.652 220.404 L 0.105 243.800 0.152 290.480 C 0.190 327.240,0.306 337.267,0.700 337.660 C 0.975 337.935,1.200 338.855,1.200 339.704 C 1.200 340.631,1.360 341.148,1.600 341.000 C 1.842 340.851,2.000 341.396,2.000 342.376 C 2.000 343.269,2.180 344.000,2.400 344.000 C 2.620 344.000,2.800 344.529,2.800 345.176 C 2.800 345.823,2.980 346.464,3.200 346.600 C 3.420 346.736,3.600 347.287,3.600 347.824 C 3.600 348.361,3.780 348.800,4.000 348.800 C 4.220 348.800,4.400 349.239,4.400 349.776 C 4.400 350.313,4.580 350.864,4.800 351.000 C 5.020 351.136,5.200 351.687,5.200 352.224 C 5.200 352.761,5.380 353.200,5.600 353.200 C 5.820 353.200,6.000 353.382,6.000 353.604 C 6.000 354.213,7.715 357.780,8.081 357.933 C 8.257 358.007,8.400 358.412,8.400 358.833 C 8.400 359.255,8.560 359.600,8.757 359.600 C 8.953 359.600,9.237 360.093,9.388 360.696 C 9.540 361.299,9.788 361.884,9.941 361.996 C 10.402 362.335,11.763 364.563,11.853 365.126 C 11.899 365.415,12.266 365.955,12.668 366.326 C 13.071 366.697,13.457 367.262,13.527 367.581 C 13.597 367.901,14.002 368.406,14.427 368.704 C 14.852 369.002,15.200 369.460,15.200 369.723 C 15.200 370.479,22.798 378.526,26.793 382.000 C 27.932 382.990,29.106 384.025,29.403 384.300 C 29.700 384.575,30.070 384.800,30.225 384.800 C 30.379 384.800,30.809 385.149,31.178 385.575 C 31.548 386.001,32.109 386.406,32.425 386.475 C 32.741 386.544,33.270 386.880,33.600 387.223 C 33.930 387.565,35.550 388.535,37.200 389.378 C 38.850 390.221,40.260 391.066,40.333 391.255 C 40.407 391.445,40.812 391.600,41.233 391.600 C 41.655 391.600,42.001 391.735,42.003 391.900 C 42.007 392.311,43.991 393.200,44.903 393.200 C 45.312 393.200,45.536 393.380,45.400 393.600 C 45.264 393.820,45.523 394.000,45.976 394.000 C 46.429 394.000,46.800 394.180,46.800 394.400 C 46.800 394.620,47.239 394.800,47.776 394.800 C 48.313 394.800,48.864 394.980,49.000 395.200 C 49.136 395.420,49.687 395.600,50.224 395.600 C 50.761 395.600,51.200 395.780,51.200 396.000 C 51.200 396.220,51.704 396.400,52.320 396.400 C 52.936 396.400,53.611 396.567,53.820 396.771 C 54.029 396.975,54.740 397.212,55.400 397.297 C 56.060 397.383,57.310 397.761,58.179 398.139 C 59.047 398.516,60.018 398.725,60.335 398.603 C 60.653 398.482,61.336 398.659,61.852 398.998 C 62.369 399.336,63.289 399.606,63.896 399.597 C 64.503 399.588,67.321 399.700,70.158 399.846 C 74.215 400.056,75.251 400.007,75.010 399.616 C 74.780 399.244,74.890 399.216,75.452 399.502 C 75.863 399.712,77.246 399.920,78.524 399.963 L 80.848 400.043 149.088 331.802 C 186.620 294.269,217.434 263.704,217.564 263.880 C 217.948 264.400,219.541 265.200,220.195 265.200 C 220.528 265.200,220.800 265.380,220.800 265.600 C 220.800 265.820,221.522 266.000,222.405 266.000 C 223.288 266.000,224.361 266.219,224.789 266.486 C 225.400 266.868,225.857 266.868,226.912 266.486 C 227.652 266.219,228.818 266.000,229.505 266.000 C 230.191 266.000,230.864 265.820,231.000 265.600 C 231.136 265.380,231.563 265.200,231.948 265.200 C 232.334 265.200,233.036 264.840,233.508 264.400 C 233.980 263.960,234.533 263.600,234.737 263.600 C 235.047 263.600,236.882 261.665,238.433 259.703 C 240.192 257.478,241.067 251.638,241.182 241.351 C 241.199 239.760,241.436 239.466,248.039 232.830 L 254.878 225.958 255.650 227.279 C 256.075 228.006,256.528 228.915,256.658 229.300 C 256.787 229.685,257.067 230.000,257.280 230.000 C 257.768 230.000,258.059 230.608,253.542 222.190 C 251.420 218.235,249.035 213.785,248.242 212.300 C 247.449 210.815,246.145 208.385,245.344 206.900 C 244.543 205.415,243.250 202.985,242.471 201.500 C 241.692 200.015,240.917 198.800,240.749 198.800 C 240.582 198.800,240.389 211.445,240.322 226.900 C 240.233 247.379,240.074 255.217,239.734 255.800 C 239.477 256.240,238.977 257.269,238.622 258.086 C 233.999 268.723,217.985 268.176,212.698 257.200 L 211.445 254.600 211.423 199.000 L 211.400 143.400 212.556 141.200 C 213.893 138.658,216.143 136.326,218.063 135.493 C 221.183 134.139,221.766 134.000,224.319 134.006 C 229.295 134.017,238.400 139.872,238.400 143.060 C 238.400 143.357,238.559 143.600,238.753 143.600 C 238.948 143.600,239.207 143.915,239.330 144.300 C 239.531 144.930,240.352 146.439,243.196 151.400 C 244.075 152.934,245.083 154.738,246.995 158.200 C 247.822 159.696,252.065 167.285,254.599 171.800 C 255.217 172.900,256.099 174.520,256.561 175.400 C 257.022 176.280,257.490 177.090,257.600 177.200 C 257.710 177.310,258.187 178.120,258.660 179.000 C 259.133 179.880,259.923 181.320,260.417 182.200 C 260.910 183.080,261.764 184.610,262.314 185.600 C 262.865 186.590,264.432 189.380,265.796 191.800 C 269.535 198.433,271.648 202.222,273.437 205.500 C 274.762 207.929,275.389 208.565,275.055 207.142 C 274.799 206.053,305.314 174.746,305.954 175.442 C 306.089 175.589,305.975 175.790,305.700 175.888 C 305.425 175.986,305.200 176.329,305.200 176.650 C 305.200 176.971,304.840 177.620,304.400 178.092 C 303.960 178.564,303.600 179.187,303.600 179.475 C 303.600 179.764,303.420 180.000,303.200 180.000 C 302.980 180.000,302.800 180.360,302.800 180.800 C 302.800 181.240,302.620 181.600,302.400 181.600 C 302.180 181.600,302.000 181.878,302.000 182.217 C 302.000 182.556,301.640 183.220,301.200 183.692 C 300.760 184.164,300.400 184.787,300.400 185.075 C 300.400 185.364,300.220 185.600,300.000 185.600 C 299.780 185.600,299.600 185.960,299.600 186.400 C 299.600 186.840,299.420 187.200,299.200 187.200 C 298.980 187.200,298.800 187.560,298.800 188.000 C 298.800 188.440,298.620 188.800,298.400 188.800 C 298.180 188.800,298.000 189.160,298.000 189.600 C 298.000 190.040,297.865 190.400,297.699 190.400 C 297.534 190.400,296.953 191.255,296.409 192.300 C 295.865 193.345,295.324 194.290,295.208 194.400 C 295.091 194.510,294.457 195.680,293.798 197.000 C 293.139 198.320,292.465 199.460,292.300 199.533 C 292.135 199.607,292.000 199.958,292.000 200.313 C 292.000 201.137,292.475 200.647,293.562 198.700 C 294.023 197.875,294.785 196.525,295.257 195.700 C 295.728 194.875,296.560 193.390,297.106 192.400 C 297.652 191.410,298.414 190.060,298.800 189.400 C 299.186 188.740,299.997 187.300,300.604 186.200 C 302.031 183.611,304.828 178.620,305.942 176.674 C 306.422 175.835,306.694 174.952,306.546 174.712 C 306.398 174.473,306.456 174.387,306.675 174.523 C 306.894 174.658,307.466 174.011,307.945 173.085 C 308.424 172.158,309.288 170.590,309.865 169.600 C 310.442 168.610,311.338 167.035,311.857 166.100 C 313.310 163.480,314.403 161.524,318.284 154.600 C 320.257 151.080,322.368 147.306,322.976 146.213 C 330.852 132.055,345.851 129.744,350.861 141.918 L 351.800 144.200 351.800 199.559 C 351.800 230.006,351.910 254.241,352.044 253.414 C 352.883 248.251,352.419 142.000,351.558 142.000 C 351.361 142.000,351.200 141.640,351.200 141.200 C 351.200 140.760,351.020 140.400,350.800 140.400 C 350.580 140.400,350.400 140.125,350.400 139.789 C 350.400 139.017,347.136 135.724,346.187 135.539 C 345.679 135.440,353.316 127.562,372.782 108.102 L 400.089 80.804 399.853 72.902 C 399.577 63.650,399.501 62.566,399.100 62.166 C 398.935 62.001,398.800 61.187,398.800 60.357 C 398.800 59.527,398.620 58.736,398.400 58.600 C 398.180 58.464,398.000 57.924,398.000 57.400 C 398.000 56.876,397.820 56.336,397.600 56.200 C 397.380 56.064,397.200 55.524,397.200 55.000 C 397.200 54.476,397.020 53.936,396.800 53.800 C 396.580 53.664,396.400 53.023,396.400 52.376 C 396.400 51.729,396.220 51.200,396.000 51.200 C 395.780 51.200,395.600 50.761,395.600 50.224 C 395.600 49.687,395.420 49.136,395.200 49.000 C 394.980 48.864,394.800 48.303,394.800 47.753 C 394.800 47.203,394.656 46.842,394.480 46.951 C 394.304 47.060,393.924 46.352,393.637 45.377 C 393.349 44.403,392.990 43.682,392.840 43.775 C 392.689 43.868,392.537 43.555,392.501 43.078 C 392.465 42.602,392.248 42.149,392.018 42.073 C 391.788 41.996,391.600 41.588,391.600 41.167 C 391.600 40.745,391.434 40.400,391.232 40.400 C 391.029 40.400,390.745 39.860,390.600 39.200 C 390.455 38.540,390.203 38.000,390.039 38.000 C 389.876 38.000,389.319 37.145,388.803 36.100 C 388.287 35.055,387.742 34.110,387.592 34.000 C 387.442 33.890,387.084 33.353,386.796 32.808 C 386.508 32.262,385.852 31.484,385.336 31.079 C 384.821 30.673,384.400 30.130,384.400 29.871 C 384.400 29.217,381.371 25.962,381.056 26.277 C 380.915 26.418,380.800 26.260,380.800 25.925 C 380.800 24.920,371.275 15.763,369.549 15.110 C 369.127 14.950,368.683 14.561,368.562 14.246 C 368.441 13.931,367.815 13.455,367.171 13.188 C 366.527 12.921,366.000 12.576,366.000 12.420 C 366.000 12.264,365.100 11.715,364.000 11.200 C 362.900 10.685,362.000 10.128,362.000 9.963 C 362.000 9.798,361.460 9.545,360.800 9.400 C 360.140 9.255,359.600 8.971,359.600 8.768 C 359.600 8.566,359.255 8.400,358.833 8.400 C 358.412 8.400,358.007 8.257,357.933 8.081 C 357.780 7.715,354.213 6.000,353.604 6.000 C 353.382 6.000,353.200 5.820,353.200 5.600 C 353.200 5.380,352.761 5.200,352.224 5.200 C 351.687 5.200,351.136 5.020,351.000 4.800 C 350.864 4.580,350.313 4.400,349.776 4.400 C 349.239 4.400,348.800 4.220,348.800 4.000 C 348.800 3.780,348.361 3.600,347.824 3.600 C 347.287 3.600,346.736 3.420,346.600 3.200 C 346.464 2.980,345.823 2.800,345.176 2.800 C 344.529 2.800,344.000 2.620,344.000 2.400 C 344.000 2.180,343.381 2.000,342.624 2.000 C 341.867 2.000,341.136 1.820,341.000 1.600 C 340.864 1.380,340.169 1.200,339.456 1.200 C 338.743 1.200,337.935 0.975,337.660 0.700 C 337.267 0.306,327.241 0.190,290.480 0.154 L 243.800 0.108 164.334 79.754 M322.311 225.891 C 322.389 245.319,322.551 253.502,322.864 253.791 C 323.183 254.086,323.236 253.825,323.053 252.850 C 322.914 252.107,322.800 239.553,322.800 224.950 C 322.800 210.347,322.665 198.400,322.500 198.400 C 322.335 198.400,322.250 210.771,322.311 225.891 M320.621 201.558 C 320.053 202.679,319.259 204.182,318.857 204.899 C 316.248 209.543,311.993 217.998,312.269 217.990 C 312.451 217.984,313.221 216.679,313.980 215.090 C 314.739 213.500,315.459 212.110,315.580 212.000 C 315.701 211.890,316.503 210.450,317.362 208.800 C 318.221 207.150,319.626 204.475,320.485 202.856 C 321.343 201.237,321.957 199.824,321.850 199.716 C 321.742 199.609,321.189 200.438,320.621 201.558 M290.271 203.500 C 289.975 204.436,288.676 206.566,288.300 206.733 C 288.135 206.807,288.000 207.158,288.000 207.513 C 288.000 208.381,288.415 207.872,289.969 205.100 C 290.678 203.835,291.086 202.800,290.876 202.800 C 290.666 202.800,290.393 203.115,290.271 203.500 M275.200 208.720 C 275.200 208.896,275.363 209.211,275.562 209.420 C 275.762 209.629,276.271 210.430,276.694 211.200 C 280.142 217.473,281.387 219.600,281.613 219.600 C 281.756 219.600,282.838 217.845,284.016 215.700 C 285.193 213.555,286.572 211.129,287.079 210.308 C 288.092 208.667,288.171 208.400,287.647 208.400 C 287.452 208.400,287.193 208.715,287.071 209.100 C 286.851 209.796,285.587 212.018,285.195 212.400 C 285.082 212.510,284.544 213.500,284.000 214.600 C 283.456 215.700,282.905 216.690,282.776 216.800 C 282.647 216.910,282.425 217.315,282.283 217.700 C 281.936 218.642,281.174 218.587,280.916 217.600 C 280.801 217.160,280.548 216.800,280.353 216.800 C 280.159 216.800,280.000 216.440,280.000 216.000 C 280.000 215.560,279.864 215.200,279.698 215.200 C 279.531 215.200,279.141 214.615,278.830 213.900 C 278.519 213.185,278.160 212.510,278.032 212.400 C 277.646 212.067,276.366 209.847,276.129 209.100 C 275.907 208.402,275.200 208.113,275.200 208.720 M310.620 220.360 C 310.052 221.482,309.725 222.396,309.893 222.390 C 310.259 222.379,312.062 218.729,311.821 218.488 C 311.729 218.396,311.189 219.238,310.620 220.360 M258.400 232.487 C 258.400 232.842,258.535 233.193,258.700 233.267 C 258.865 233.340,259.593 234.570,260.318 236.000 C 261.042 237.430,262.526 240.220,263.615 242.200 C 264.704 244.180,265.902 246.430,266.277 247.200 C 266.652 247.970,267.060 248.690,267.185 248.800 C 267.309 248.910,267.858 249.900,268.405 251.000 C 268.952 252.100,269.535 253.060,269.700 253.133 C 269.865 253.207,270.000 253.522,270.000 253.833 C 270.000 254.145,270.180 254.400,270.400 254.400 C 270.620 254.400,270.800 254.586,270.800 254.813 C 270.800 255.288,273.415 257.996,273.887 258.009 C 274.059 258.014,274.650 258.370,275.200 258.800 C 275.750 259.230,276.470 259.579,276.800 259.575 C 277.130 259.571,276.860 259.280,276.200 258.927 C 272.664 257.040,271.002 254.968,267.115 247.600 C 265.896 245.290,264.451 242.590,263.904 241.600 C 263.357 240.610,262.063 238.180,261.027 236.200 C 258.981 232.288,258.400 231.466,258.400 232.487 M303.900 233.075 C 303.579 233.694,302.643 235.460,301.820 237.000 C 296.711 246.558,295.581 248.799,295.873 248.790 C 296.053 248.785,296.572 248.020,297.028 247.090 C 298.465 244.155,303.258 235.056,304.091 233.679 C 304.531 232.952,304.800 232.266,304.687 232.154 C 304.575 232.042,304.221 232.456,303.900 233.075 M293.819 251.963 C 293.467 252.643,293.319 253.199,293.490 253.197 C 293.855 253.193,294.869 251.135,294.625 250.892 C 294.534 250.800,294.171 251.282,293.819 251.963 M291.296 255.594 C 291.024 256.031,290.077 256.867,289.192 257.453 C 288.308 258.038,287.667 258.600,287.769 258.702 C 287.952 258.885,290.227 257.413,291.000 256.612 C 291.948 255.628,292.472 254.800,292.145 254.800 C 291.951 254.800,291.569 255.157,291.296 255.594 M350.622 256.998 C 348.582 262.339,343.056 265.754,336.803 265.536 C 334.642 265.461,333.082 265.532,333.337 265.694 C 334.700 266.559,340.874 266.005,343.421 264.790 C 347.174 262.999,352.693 256.560,351.499 255.365 C 351.398 255.265,351.003 255.999,350.622 256.998 M324.000 257.828 C 324.000 259.480,330.276 265.200,332.089 265.200 C 332.363 265.200,331.871 264.821,330.994 264.357 C 328.361 262.965,326.930 261.712,325.563 259.603 C 324.323 257.690,324.000 257.322,324.000 257.828 M278.262 260.100 C 278.364 260.265,279.866 260.400,281.600 260.400 C 283.334 260.400,284.836 260.265,284.938 260.100 C 285.041 259.935,283.539 259.800,281.601 259.800 C 279.663 259.800,278.161 259.935,278.262 260.100 " stroke="none" fill="#047ffc" fill-rule="evenodd"></path><path id="path2" d="M64.500 0.296 C 63.125 0.374,62.000 0.610,62.000 0.819 C 62.000 1.029,61.280 1.200,60.400 1.200 C 59.520 1.200,58.800 1.380,58.800 1.600 C 58.800 1.820,58.170 2.000,57.400 2.000 C 56.630 2.000,56.000 2.180,56.000 2.400 C 56.000 2.620,55.471 2.800,54.824 2.800 C 54.177 2.800,53.536 2.980,53.400 3.200 C 53.264 3.420,52.613 3.600,51.953 3.600 C 51.255 3.600,50.856 3.767,51.000 4.000 C 51.144 4.233,50.737 4.400,50.024 4.400 C 49.351 4.400,48.800 4.580,48.800 4.800 C 48.800 5.020,48.361 5.200,47.824 5.200 C 47.287 5.200,46.736 5.380,46.600 5.600 C 46.464 5.820,45.993 6.000,45.553 6.000 C 45.113 6.000,44.864 6.180,45.000 6.400 C 45.141 6.628,44.796 6.800,44.200 6.800 C 43.604 6.800,43.259 6.972,43.400 7.200 C 43.536 7.420,43.277 7.600,42.824 7.600 C 42.371 7.600,42.000 7.780,42.000 8.000 C 42.000 8.220,41.736 8.400,41.414 8.400 C 40.601 8.400,38.000 9.676,38.000 10.074 C 38.000 10.253,37.722 10.400,37.383 10.400 C 37.044 10.400,36.380 10.760,35.908 11.200 C 35.436 11.640,34.813 12.000,34.525 12.000 C 34.236 12.000,34.000 12.180,34.000 12.400 C 34.000 12.620,33.809 12.800,33.577 12.800 C 33.124 12.800,29.889 15.199,29.667 15.700 C 29.593 15.865,29.351 16.000,29.127 16.000 C 28.904 16.000,28.217 16.540,27.600 17.200 C 26.983 17.860,26.369 18.400,26.234 18.400 C 25.915 18.400,18.400 25.915,18.400 26.234 C 18.400 26.369,17.860 26.983,17.200 27.600 C 16.540 28.217,16.000 28.919,16.000 29.160 C 16.000 29.402,15.820 29.600,15.600 29.600 C 15.380 29.600,15.200 29.778,15.200 29.995 C 15.200 30.367,14.440 31.415,13.300 32.616 C 13.025 32.906,12.800 33.336,12.800 33.571 C 12.800 33.807,12.620 34.000,12.400 34.000 C 12.180 34.000,12.000 34.270,12.000 34.600 C 12.000 34.930,11.820 35.200,11.600 35.200 C 11.380 35.200,11.200 35.455,11.200 35.767 C 11.200 36.078,11.065 36.393,10.900 36.467 C 10.429 36.676,8.400 40.646,8.400 41.359 C 8.400 41.712,8.220 42.000,8.000 42.000 C 7.780 42.000,7.600 42.371,7.600 42.824 C 7.600 43.277,7.420 43.536,7.200 43.400 C 6.972 43.259,6.800 43.604,6.800 44.200 C 6.800 44.776,6.650 45.155,6.467 45.042 C 6.284 44.929,5.892 45.728,5.595 46.818 C 5.298 47.908,4.908 48.800,4.728 48.800 C 4.547 48.800,4.400 49.149,4.400 49.576 C 4.400 50.003,4.220 50.464,4.000 50.600 C 3.780 50.736,3.600 51.276,3.600 51.800 C 3.600 52.324,3.420 52.864,3.200 53.000 C 2.980 53.136,2.800 53.867,2.800 54.624 C 2.800 55.381,2.620 56.000,2.400 56.000 C 2.180 56.000,2.000 56.540,2.000 57.200 C 2.000 57.860,1.820 58.400,1.600 58.400 C 1.380 58.400,1.200 59.195,1.200 60.167 C 1.200 61.224,0.999 62.000,0.700 62.100 C 0.130 62.290,-0.281 243.600,0.289 243.600 C 0.459 243.600,11.083 233.116,23.899 220.301 L 47.200 197.003 47.236 212.401 C 47.256 220.871,47.396 233.920,47.547 241.400 L 47.822 255.000 49.112 257.515 C 54.077 267.190,66.164 269.107,73.160 261.329 C 74.282 260.082,75.200 258.822,75.200 258.531 C 75.200 258.239,75.380 258.000,75.600 258.000 C 75.820 258.000,76.000 257.676,76.000 257.280 C 76.000 256.884,76.208 256.352,76.461 256.099 C 77.055 255.505,77.546 237.854,77.577 216.011 C 77.597 202.277,77.682 199.942,78.141 200.611 C 78.612 201.297,80.880 205.509,84.060 211.600 C 84.577 212.590,85.092 213.490,85.205 213.600 C 85.318 213.710,85.856 214.700,86.400 215.800 C 86.944 216.900,87.483 217.890,87.597 218.000 C 87.781 218.177,89.724 221.822,90.954 224.297 C 91.199 224.790,91.535 225.195,91.700 225.197 C 91.865 225.199,92.000 225.545,92.000 225.967 C 92.000 226.388,92.135 226.793,92.300 226.867 C 92.465 226.940,93.480 228.710,94.555 230.800 C 95.631 232.890,97.777 236.940,99.325 239.800 C 100.872 242.660,102.691 246.080,103.367 247.400 C 104.042 248.720,104.689 249.890,104.803 250.000 C 104.917 250.110,105.456 251.083,106.000 252.162 C 107.911 255.951,110.412 258.134,114.919 259.949 C 116.359 260.530,120.670 260.534,121.027 259.956 C 121.221 259.642,120.815 259.595,119.639 259.793 C 118.674 259.956,117.101 259.868,115.888 259.583 C 110.780 258.381,108.685 256.316,104.441 248.300 C 102.636 244.891,100.468 240.820,97.935 236.086 C 97.027 234.389,94.987 230.570,93.400 227.600 C 91.813 224.630,89.773 220.811,88.865 219.114 C 87.102 215.820,85.018 211.912,82.350 206.900 C 79.473 201.496,77.890 198.623,77.357 197.839 C 76.931 197.213,76.818 202.165,76.720 225.839 L 76.600 254.600 75.318 257.220 C 70.317 267.437,56.864 268.534,50.841 259.215 C 48.230 255.176,48.362 258.570,48.486 198.400 L 48.600 143.400 49.472 141.600 C 52.101 136.173,59.380 132.995,64.801 134.906 C 70.680 136.979,73.205 140.031,81.421 155.000 C 82.024 156.100,83.638 158.980,85.007 161.400 C 86.376 163.820,89.211 168.860,91.307 172.600 C 96.572 181.997,96.692 182.211,97.657 183.900 C 98.128 184.725,98.960 186.210,99.506 187.200 C 100.052 188.190,100.815 189.540,101.201 190.200 C 101.586 190.860,102.492 192.480,103.212 193.800 C 103.933 195.120,105.997 198.810,107.799 202.000 C 111.595 208.719,112.853 210.961,114.531 214.000 C 118.052 220.375,118.324 220.660,119.226 218.909 C 119.541 218.299,120.714 216.180,121.833 214.200 C 122.952 212.220,126.036 206.730,128.687 202.000 C 131.338 197.270,133.913 192.680,134.410 191.800 C 134.907 190.920,135.764 189.390,136.316 188.400 C 136.867 187.410,138.436 184.620,139.803 182.200 C 141.169 179.780,144.003 174.740,146.101 171.000 C 150.165 163.753,151.170 161.963,152.333 159.900 C 152.736 159.185,154.921 155.270,157.189 151.200 C 163.781 139.372,165.462 137.531,172.119 134.851 C 173.567 134.267,177.645 134.271,179.081 134.856 C 182.100 136.087,182.937 136.544,184.201 137.654 C 185.951 139.191,187.160 141.156,187.812 143.524 C 188.231 145.046,188.335 145.185,188.364 144.258 C 188.596 136.871,177.174 131.425,169.534 135.279 C 166.737 136.690,162.085 141.056,161.165 143.133 C 160.857 143.830,160.502 144.400,160.377 144.400 C 160.252 144.400,159.902 145.030,159.600 145.800 C 159.298 146.570,158.938 147.200,158.800 147.200 C 158.662 147.200,158.302 147.830,158.000 148.600 C 157.698 149.370,157.338 150.000,157.200 150.000 C 157.062 150.000,156.702 150.630,156.400 151.400 C 156.098 152.170,155.704 152.800,155.525 152.800 C 155.346 152.800,155.200 153.160,155.200 153.600 C 155.200 154.040,155.065 154.401,154.900 154.403 C 154.735 154.405,154.402 154.810,154.160 155.303 C 153.331 156.990,151.800 159.800,151.600 160.000 C 151.490 160.110,151.109 160.740,150.752 161.400 C 149.597 163.540,147.489 167.365,146.674 168.800 C 146.237 169.570,145.265 171.280,144.516 172.600 C 143.766 173.920,143.052 175.315,142.930 175.700 C 142.807 176.085,142.548 176.400,142.353 176.400 C 142.159 176.400,142.000 176.760,142.000 177.200 C 142.000 177.640,141.865 178.001,141.700 178.003 C 141.535 178.005,141.202 178.410,140.960 178.903 C 140.129 180.595,138.600 183.400,138.399 183.600 C 138.289 183.710,137.929 184.340,137.600 185.000 C 137.271 185.660,136.911 186.290,136.801 186.400 C 136.690 186.510,136.309 187.140,135.952 187.800 C 134.481 190.526,132.548 194.030,130.436 197.800 C 129.204 200.000,127.927 202.340,127.598 203.000 C 127.270 203.660,126.911 204.290,126.801 204.400 C 126.549 204.651,125.706 206.127,124.630 208.200 C 124.174 209.080,123.710 209.890,123.600 210.000 C 123.490 210.110,123.023 210.920,122.562 211.800 C 122.100 212.680,121.310 214.120,120.805 215.000 C 120.300 215.880,119.594 217.118,119.236 217.752 C 118.341 219.336,118.066 219.209,116.599 216.533 C 115.896 215.250,114.916 213.480,114.421 212.600 C 113.925 211.720,113.133 210.280,112.660 209.400 C 112.187 208.520,111.710 207.710,111.600 207.600 C 111.490 207.490,111.026 206.680,110.570 205.800 C 109.489 203.716,108.650 202.250,108.398 202.000 C 108.286 201.890,107.633 200.720,106.946 199.400 C 106.260 198.080,104.846 195.470,103.805 193.600 C 102.764 191.730,101.283 189.030,100.513 187.600 C 98.148 183.208,97.808 182.607,97.568 182.400 C 97.440 182.290,97.081 181.615,96.770 180.900 C 96.459 180.185,96.069 179.600,95.902 179.600 C 95.736 179.600,95.600 179.255,95.600 178.833 C 95.600 178.412,95.465 178.007,95.300 177.933 C 94.924 177.766,93.625 175.636,93.329 174.700 C 93.207 174.315,92.948 174.000,92.753 174.000 C 92.559 174.000,92.400 173.640,92.400 173.200 C 92.400 172.760,92.220 172.400,92.000 172.400 C 91.780 172.400,91.600 172.040,91.600 171.600 C 91.600 171.160,91.465 170.799,91.300 170.797 C 91.135 170.795,90.810 170.390,90.579 169.897 C 89.765 168.164,86.206 161.398,86.004 161.200 C 84.404 159.632,80.151 164.048,164.236 79.964 C 207.886 36.314,243.600 0.466,243.600 0.300 C 243.600 0.011,69.592 0.007,64.500 0.296 M220.400 134.481 C 219.850 134.716,218.798 135.171,218.063 135.491 C 215.147 136.760,211.552 141.680,211.636 144.287 C 211.670 145.330,211.696 145.312,212.051 144.000 C 213.046 140.325,215.550 137.157,218.459 135.895 C 221.563 134.547,222.148 134.400,224.400 134.400 C 226.767 134.400,227.563 134.615,230.668 136.097 C 232.460 136.952,235.589 139.728,237.323 142.000 C 237.910 142.770,238.393 143.202,238.396 142.960 C 238.411 141.388,231.602 135.623,228.411 134.506 C 226.700 133.907,221.780 133.892,220.400 134.481 M338.305 134.283 C 338.802 134.379,339.522 134.375,339.905 134.275 C 340.287 134.175,339.880 134.096,339.000 134.101 C 338.120 134.105,337.807 134.187,338.305 134.283 M333.400 135.345 C 331.287 136.335,326.998 139.532,327.333 139.867 C 327.442 139.975,328.170 139.461,328.951 138.724 C 330.218 137.529,332.686 136.100,335.600 134.875 C 336.150 134.643,336.330 134.444,336.000 134.431 C 335.670 134.418,334.500 134.830,333.400 135.345 M342.400 134.859 C 346.213 136.404,347.910 137.713,350.109 140.804 L 350.818 141.800 350.240 140.579 C 349.090 138.152,344.023 134.374,342.000 134.436 C 341.670 134.446,341.850 134.636,342.400 134.859 M325.000 142.888 C 324.120 144.253,323.209 145.736,322.976 146.185 C 322.742 146.633,321.872 148.215,321.041 149.700 C 320.211 151.185,319.618 152.400,319.723 152.400 C 319.829 152.400,320.951 150.555,322.216 148.300 C 323.481 146.045,325.120 143.345,325.858 142.300 C 326.595 141.255,327.064 140.402,326.899 140.403 C 326.735 140.405,325.880 141.523,325.000 142.888 M238.949 144.700 C 239.263 145.305,240.437 147.389,241.559 149.332 C 242.682 151.274,243.600 152.925,243.600 153.000 C 243.600 153.075,244.564 154.816,245.743 156.868 C 246.921 158.921,248.336 161.410,248.886 162.400 C 249.437 163.390,250.241 164.830,250.674 165.600 C 251.107 166.370,252.143 168.224,252.977 169.721 C 253.810 171.217,254.561 172.372,254.646 172.287 C 254.731 172.202,253.343 169.538,251.562 166.366 C 249.781 163.195,247.776 159.610,247.106 158.400 C 244.761 154.160,244.106 152.987,243.196 151.400 C 240.352 146.439,239.531 144.930,239.330 144.300 C 239.207 143.915,238.943 143.600,238.743 143.600 C 238.543 143.600,238.636 144.095,238.949 144.700 M188.594 198.600 C 188.594 227.860,188.642 239.771,188.700 225.069 C 188.758 210.367,188.758 186.427,188.700 171.869 C 188.642 157.311,188.594 169.340,188.594 198.600 M351.794 199.000 C 351.794 228.480,351.842 240.481,351.900 225.669 C 351.958 210.857,351.958 186.737,351.900 172.069 C 351.842 157.401,351.794 169.520,351.794 199.000 M211.393 190.200 C 211.393 214.620,211.441 224.551,211.500 212.269 C 211.559 199.987,211.559 180.007,211.500 167.869 C 211.441 155.731,211.393 165.780,211.393 190.200 M318.586 154.100 L 317.952 155.400 318.767 154.400 C 319.552 153.437,319.808 152.800,319.410 152.800 C 319.306 152.800,318.935 153.385,318.586 154.100 M316.620 157.560 C 316.052 158.682,315.664 159.600,315.759 159.600 C 316.051 159.600,318.023 155.890,317.833 155.699 C 317.734 155.601,317.189 156.438,316.620 157.560 M314.614 161.035 C 314.241 161.604,314.027 162.161,314.139 162.272 C 314.250 162.383,314.629 161.918,314.981 161.237 C 315.759 159.733,315.544 159.615,314.614 161.035 M312.628 164.661 C 312.056 165.684,311.652 166.585,311.729 166.663 C 311.807 166.740,312.361 165.903,312.960 164.802 C 313.560 163.701,313.964 162.800,313.859 162.800 C 313.754 162.800,313.200 163.637,312.628 164.661 M310.614 168.235 C 310.241 168.804,310.005 169.338,310.089 169.422 C 310.173 169.507,310.558 169.041,310.944 168.388 C 311.806 166.928,311.548 166.809,310.614 168.235 M309.046 170.986 C 308.691 171.528,308.400 172.060,308.400 172.168 C 308.400 172.276,307.860 173.281,307.200 174.400 C 305.986 176.459,305.548 177.641,306.538 176.189 C 307.481 174.805,310.076 170.000,309.880 170.000 C 309.777 170.000,309.401 170.444,309.046 170.986 M255.809 174.702 C 256.425 175.858,256.999 176.734,257.084 176.649 C 257.270 176.463,255.701 173.568,255.106 173.000 C 254.876 172.780,255.192 173.546,255.809 174.702 M258.455 179.500 C 259.149 180.765,259.957 182.194,260.251 182.674 C 260.545 183.155,261.117 184.145,261.523 184.874 C 261.929 185.604,262.938 187.415,263.765 188.900 C 264.592 190.385,265.359 191.600,265.469 191.600 C 265.680 191.600,264.487 189.402,259.716 181.000 C 258.966 179.680,258.252 178.285,258.130 177.900 C 258.007 177.515,257.746 177.200,257.550 177.200 C 257.354 177.200,257.761 178.235,258.455 179.500 M305.105 178.100 C 304.244 179.422,303.046 181.865,303.488 181.400 C 304.011 180.850,306.074 177.200,305.863 177.200 C 305.769 177.200,305.428 177.605,305.105 178.100 M302.253 183.300 L 301.533 184.600 302.358 183.600 C 303.089 182.713,303.414 182.000,303.086 182.000 C 303.024 182.000,302.649 182.585,302.253 183.300 M299.800 187.600 C 299.459 188.260,299.269 188.800,299.379 188.800 C 299.489 188.800,299.859 188.260,300.200 187.600 C 300.541 186.940,300.731 186.400,300.621 186.400 C 300.511 186.400,300.141 186.940,299.800 187.600 M298.200 190.400 C 297.859 191.060,297.669 191.600,297.779 191.600 C 297.889 191.600,298.259 191.060,298.600 190.400 C 298.941 189.740,299.131 189.200,299.021 189.200 C 298.911 189.200,298.541 189.740,298.200 190.400 M265.609 192.300 C 265.614 192.465,265.985 193.050,266.433 193.600 L 267.248 194.600 266.614 193.300 C 266.011 192.065,265.589 191.645,265.609 192.300 M295.814 194.635 C 295.441 195.204,295.227 195.761,295.339 195.872 C 295.450 195.983,295.829 195.518,296.181 194.837 C 296.959 193.333,296.744 193.215,295.814 194.635 M267.200 194.950 C 267.200 195.326,269.310 198.823,269.452 198.682 C 269.627 198.507,267.635 194.800,267.366 194.800 C 267.275 194.800,267.200 194.867,267.200 194.950 M294.214 197.435 C 293.841 198.004,293.627 198.561,293.739 198.672 C 293.850 198.783,294.229 198.318,294.581 197.637 C 295.359 196.133,295.144 196.015,294.214 197.435 M240.097 224.676 L 240.194 252.200 240.300 225.500 C 240.358 210.815,240.520 198.800,240.659 198.800 C 240.798 198.800,241.165 199.115,241.475 199.500 C 241.898 200.025,241.884 199.881,241.422 198.925 C 241.083 198.224,240.624 197.539,240.403 197.402 C 240.134 197.235,240.032 206.275,240.097 224.676 M322.400 197.800 C 322.059 198.210,322.043 198.400,322.348 198.400 C 322.671 198.400,322.824 205.893,322.900 225.500 L 323.006 252.600 323.103 224.900 C 323.156 209.665,323.132 197.200,323.049 197.200 C 322.966 197.200,322.674 197.470,322.400 197.800 M157.502 200.496 C 155.731 203.980,151.581 211.849,149.328 216.000 C 147.694 219.009,146.284 221.675,141.602 230.600 C 140.217 233.240,138.930 235.571,138.742 235.780 C 138.554 235.989,138.400 236.315,138.400 236.504 C 138.400 237.352,139.198 236.172,140.823 232.918 C 141.790 230.983,142.675 229.310,142.790 229.200 C 142.906 229.090,143.424 228.190,143.941 227.200 C 148.057 219.329,149.854 215.923,150.802 214.200 C 152.263 211.545,156.218 204.049,157.873 200.800 L 159.198 198.200 159.205 225.600 C 159.209 242.676,159.359 253.226,159.602 253.600 C 159.856 253.991,159.958 244.406,159.895 226.033 C 159.832 207.212,159.664 197.821,159.389 197.730 C 159.164 197.655,158.314 198.900,157.502 200.496 M270.186 200.300 C 270.535 201.015,270.906 201.600,271.010 201.600 C 271.408 201.600,271.152 200.963,270.367 200.000 L 269.552 199.000 270.186 200.300 M292.646 200.186 C 292.291 200.728,292.000 201.260,292.000 201.368 C 292.000 201.476,291.493 202.428,290.873 203.482 C 288.665 207.239,286.766 210.984,287.568 210.000 C 288.016 209.450,288.386 208.879,288.391 208.732 C 288.396 208.584,289.318 206.874,290.441 204.932 C 292.894 200.686,293.675 199.200,293.456 199.200 C 293.366 199.200,293.001 199.644,292.646 200.186 M242.006 200.475 C 241.998 200.852,244.414 205.303,244.896 205.800 C 245.110 206.020,244.733 205.120,244.059 203.800 C 242.730 201.198,242.016 200.041,242.006 200.475 M319.800 202.400 C 319.243 203.500,318.877 204.400,318.987 204.400 C 319.097 204.400,319.643 203.500,320.200 202.400 C 320.757 201.300,321.123 200.400,321.013 200.400 C 320.903 200.400,320.357 201.300,319.800 202.400 M272.240 204.002 C 272.839 205.103,273.393 205.940,273.471 205.863 C 273.643 205.690,271.608 202.000,271.341 202.000 C 271.236 202.000,271.640 202.901,272.240 204.002 M245.200 206.588 C 245.200 206.908,246.853 209.778,247.281 210.200 C 247.504 210.420,247.214 209.655,246.636 208.500 C 245.716 206.660,245.200 205.972,245.200 206.588 M273.960 207.000 C 274.634 208.305,275.188 209.028,275.185 208.600 C 275.183 208.380,274.814 207.750,274.364 207.200 C 273.821 206.536,273.685 206.469,273.960 207.000 M316.200 209.200 C 315.859 209.860,315.669 210.400,315.779 210.400 C 315.889 210.400,316.259 209.860,316.600 209.200 C 316.941 208.540,317.131 208.000,317.021 208.000 C 316.911 208.000,316.541 208.540,316.200 209.200 M276.193 211.000 C 278.954 216.059,280.084 218.000,280.269 218.000 C 280.379 218.000,279.792 216.785,278.965 215.300 C 278.138 213.815,277.116 211.970,276.693 211.200 C 276.270 210.430,275.739 209.620,275.513 209.400 C 275.286 209.180,275.592 209.900,276.193 211.000 M285.786 212.500 L 285.152 213.800 285.967 212.800 C 286.752 211.837,287.008 211.200,286.610 211.200 C 286.506 211.200,286.135 211.785,285.786 212.500 M250.602 216.711 C 251.432 218.312,252.183 219.551,252.270 219.463 C 252.455 219.279,250.090 214.798,249.493 214.200 C 249.273 213.980,249.773 215.110,250.602 216.711 M283.400 216.800 C 283.059 217.460,282.869 218.000,282.979 218.000 C 283.089 218.000,283.459 217.460,283.800 216.800 C 284.141 216.140,284.331 215.600,284.221 215.600 C 284.111 215.600,283.741 216.140,283.400 216.800 M311.828 217.461 C 311.256 218.484,310.852 219.385,310.929 219.463 C 311.007 219.540,311.561 218.703,312.160 217.602 C 312.760 216.501,313.164 215.600,313.059 215.600 C 312.954 215.600,312.400 216.437,311.828 217.461 M280.792 219.100 C 281.032 219.595,281.395 220.000,281.600 220.000 C 281.805 220.000,282.168 219.595,282.408 219.100 C 282.827 218.236,282.819 218.231,282.222 218.976 C 281.606 219.745,281.594 219.745,280.978 218.976 C 280.381 218.231,280.373 218.236,280.792 219.100 M253.802 222.711 C 254.632 224.312,255.383 225.551,255.470 225.463 C 255.655 225.279,253.290 220.798,252.693 220.200 C 252.473 219.980,252.973 221.110,253.802 222.711 M306.640 227.198 C 306.040 228.299,305.636 229.200,305.741 229.200 C 306.008 229.200,308.043 225.510,307.871 225.337 C 307.793 225.260,307.239 226.097,306.640 227.198 M256.400 227.600 C 256.849 228.480,257.306 229.200,257.416 229.200 C 257.526 229.200,257.249 228.480,256.800 227.600 C 256.351 226.720,255.894 226.000,255.784 226.000 C 255.674 226.000,255.951 226.720,256.400 227.600 M257.606 229.688 C 257.598 230.079,259.177 232.903,259.682 233.400 C 259.905 233.620,259.715 233.080,259.259 232.200 C 258.269 230.288,257.615 229.293,257.606 229.688 M260.872 235.800 C 261.167 236.684,263.625 241.200,263.812 241.200 C 264.036 241.200,261.881 236.933,261.186 236.000 C 260.940 235.670,260.799 235.580,260.872 235.800 M137.061 239.060 C 136.515 240.127,135.246 242.530,134.241 244.400 C 133.236 246.270,131.736 249.123,130.907 250.740 C 129.041 254.381,126.277 257.322,123.509 258.610 C 122.349 259.150,121.710 259.594,122.088 259.596 C 125.320 259.614,128.952 255.516,133.604 246.600 C 135.211 243.520,136.956 240.213,137.481 239.252 C 138.007 238.291,138.351 237.418,138.246 237.312 C 138.140 237.207,137.607 237.993,137.061 239.060 M298.200 243.200 C 297.859 243.860,297.669 244.400,297.779 244.400 C 297.889 244.400,298.259 243.860,298.600 243.200 C 298.941 242.540,299.131 242.000,299.021 242.000 C 298.911 242.000,298.541 242.540,298.200 243.200 M265.400 244.400 C 265.741 245.060,266.111 245.600,266.221 245.600 C 266.331 245.600,266.141 245.060,265.800 244.400 C 265.459 243.740,265.089 243.200,264.979 243.200 C 264.869 243.200,265.059 243.740,265.400 244.400 M294.800 249.600 C 294.351 250.480,294.074 251.200,294.184 251.200 C 294.294 251.200,294.751 250.480,295.200 249.600 C 295.649 248.720,295.926 248.000,295.816 248.000 C 295.706 248.000,295.249 248.720,294.800 249.600 M269.040 251.202 C 269.639 252.303,270.193 253.140,270.271 253.063 C 270.443 252.890,268.408 249.200,268.141 249.200 C 268.036 249.200,268.440 250.101,269.040 251.202 M292.614 253.435 C 292.241 254.004,292.005 254.538,292.089 254.622 C 292.173 254.707,292.558 254.241,292.944 253.588 C 293.806 252.128,293.548 252.009,292.614 253.435 M211.606 254.033 C 211.609 254.565,211.789 255.270,212.006 255.600 C 212.282 256.022,212.323 255.785,212.142 254.800 C 211.825 253.075,211.598 252.749,211.606 254.033 M188.046 254.067 C 188.021 254.434,187.896 255.064,187.770 255.467 C 187.552 256.162,187.563 256.163,187.997 255.487 C 188.248 255.096,188.373 254.466,188.273 254.087 C 188.111 253.468,188.088 253.466,188.046 254.067 M239.654 254.067 C 239.625 254.434,239.484 255.064,239.341 255.467 C 239.141 256.033,239.195 256.096,239.575 255.746 C 239.846 255.497,239.987 254.867,239.888 254.346 C 239.790 253.826,239.684 253.700,239.654 254.067 M271.596 255.194 C 272.290 256.071,273.067 256.918,273.323 257.076 C 273.578 257.234,273.093 256.516,272.245 255.481 C 271.397 254.447,270.620 253.600,270.518 253.600 C 270.416 253.600,270.901 254.318,271.596 255.194 M160.028 255.476 C 160.013 255.958,160.180 256.464,160.400 256.600 C 160.873 256.892,160.873 256.501,160.400 255.400 C 160.069 254.629,160.055 254.631,160.028 255.476 M323.818 256.500 C 323.968 256.995,324.255 257.576,324.456 257.791 C 324.657 258.006,324.619 257.601,324.372 256.891 C 323.865 255.438,323.397 255.108,323.818 256.500 M186.433 258.220 C 185.902 259.222,184.462 260.961,183.233 262.086 C 182.005 263.210,181.360 263.935,181.800 263.695 C 183.857 262.576,187.848 257.745,187.523 256.770 C 187.455 256.566,186.965 257.218,186.433 258.220 M212.404 256.622 C 212.393 257.882,216.342 262.701,218.200 263.694 C 218.640 263.929,218.043 263.257,216.873 262.199 C 215.703 261.142,214.220 259.360,213.577 258.239 C 212.934 257.117,212.406 256.390,212.404 256.622 M160.800 257.453 C 160.800 259.897,167.744 265.641,170.600 265.560 C 171.164 265.544,171.045 265.417,170.200 265.133 C 166.492 263.883,163.894 261.900,161.933 258.822 C 161.310 257.844,160.800 257.228,160.800 257.453 M287.496 258.237 C 287.366 258.367,286.571 258.719,285.730 259.019 C 284.888 259.319,284.524 259.573,284.920 259.582 C 285.650 259.600,288.000 258.538,288.000 258.190 C 288.000 257.931,287.782 257.951,287.496 258.237 M237.406 259.488 L 236.704 260.600 237.630 259.711 C 238.139 259.222,238.455 258.722,238.332 258.599 C 238.209 258.476,237.792 258.876,237.406 259.488 M276.400 259.000 C 276.950 259.314,277.670 259.571,278.000 259.570 C 278.330 259.569,277.994 259.306,277.254 258.984 C 275.551 258.245,275.094 258.253,276.400 259.000 M236.175 261.240 C 236.026 261.482,234.817 262.382,233.490 263.240 C 232.162 264.098,231.253 264.800,231.469 264.800 C 232.025 264.800,235.317 262.576,236.192 261.608 C 236.595 261.164,236.817 260.800,236.686 260.800 C 236.554 260.800,236.325 260.998,236.175 261.240 M326.764 261.335 C 327.349 262.063,329.600 263.777,329.600 263.494 C 329.600 263.406,328.835 262.726,327.900 261.983 C 326.965 261.240,326.454 260.948,326.764 261.335 M220.600 264.822 C 221.480 265.238,222.470 265.575,222.800 265.571 C 223.130 265.566,222.500 265.211,221.400 264.782 C 218.896 263.804,218.492 263.824,220.600 264.822 M177.400 265.200 C 176.896 265.417,176.822 265.544,177.200 265.544 C 177.530 265.544,178.160 265.389,178.600 265.200 C 179.104 264.983,179.178 264.856,178.800 264.856 C 178.470 264.856,177.840 265.011,177.400 265.200 M172.700 265.889 C 173.415 265.978,174.585 265.978,175.300 265.889 C 176.015 265.801,175.430 265.728,174.000 265.728 C 172.570 265.728,171.985 265.801,172.700 265.889 M225.100 265.882 C 225.595 265.978,226.405 265.978,226.900 265.882 C 227.395 265.787,226.990 265.709,226.000 265.709 C 225.010 265.709,224.605 265.787,225.100 265.882 " stroke="none" fill="#05a9fc" fill-rule="evenodd"></path><path id="path3" d="M372.438 108.349 C 353.203 127.647,345.680 135.440,346.187 135.539 C 347.136 135.724,350.400 139.017,350.400 139.789 C 350.400 140.125,350.580 140.400,350.800 140.400 C 351.020 140.400,351.200 140.760,351.200 141.200 C 351.200 141.640,351.361 142.000,351.558 142.000 C 352.495 142.000,352.873 248.742,351.954 253.771 C 350.384 262.366,340.348 268.573,332.919 265.544 C 329.670 264.219,328.863 263.713,327.015 261.841 C 325.907 260.718,324.754 259.260,324.453 258.600 C 324.153 257.940,323.748 257.087,323.553 256.705 C 323.359 256.323,323.200 255.594,323.200 255.085 C 323.200 254.576,323.021 253.981,322.803 253.763 C 322.550 253.510,322.368 243.593,322.303 226.453 L 322.200 199.541 320.775 202.271 C 319.991 203.772,318.552 206.530,317.576 208.400 C 316.600 210.270,315.707 211.890,315.593 212.000 C 315.478 212.110,314.761 213.460,314.000 215.000 C 313.239 216.540,312.520 217.890,312.403 218.000 C 312.285 218.110,311.744 219.100,311.200 220.200 C 310.656 221.300,310.104 222.290,309.973 222.400 C 309.843 222.510,309.481 223.185,309.170 223.900 C 308.859 224.615,308.469 225.200,308.302 225.200 C 308.136 225.200,308.000 225.560,308.000 226.000 C 308.000 226.440,307.820 226.800,307.600 226.800 C 307.380 226.800,307.200 227.145,307.200 227.567 C 307.200 227.988,307.065 228.393,306.900 228.467 C 306.735 228.540,305.866 230.040,304.969 231.800 C 304.072 233.560,302.156 237.250,300.711 240.000 C 299.267 242.750,297.661 245.810,297.142 246.800 C 296.624 247.790,296.108 248.690,295.995 248.800 C 295.882 248.910,295.342 249.900,294.795 251.000 C 294.248 252.100,293.665 253.060,293.500 253.133 C 293.335 253.207,293.200 253.430,293.200 253.629 C 293.200 254.518,289.944 257.781,288.355 258.484 C 287.720 258.765,287.200 259.131,287.200 259.298 C 287.200 259.464,286.761 259.600,286.224 259.600 C 285.687 259.600,285.136 259.780,285.000 260.000 C 284.864 260.220,283.334 260.400,281.600 260.400 C 279.866 260.400,278.336 260.220,278.200 260.000 C 278.064 259.780,277.558 259.596,277.076 259.591 C 276.594 259.586,275.750 259.230,275.200 258.800 C 274.650 258.370,274.059 258.014,273.887 258.009 C 273.415 257.996,270.800 255.288,270.800 254.813 C 270.800 254.586,270.620 254.400,270.400 254.400 C 270.180 254.400,270.000 254.145,270.000 253.833 C 270.000 253.522,269.865 253.207,269.700 253.133 C 269.535 253.060,268.952 252.100,268.405 251.000 C 267.858 249.900,267.309 248.910,267.185 248.800 C 267.060 248.690,266.652 247.970,266.277 247.200 C 265.902 246.430,264.704 244.180,263.615 242.200 C 262.526 240.220,261.042 237.430,260.318 236.000 C 259.593 234.570,258.865 233.340,258.700 233.267 C 258.535 233.193,258.400 232.788,258.400 232.367 C 258.400 231.945,258.220 231.600,258.000 231.600 C 257.780 231.600,257.600 231.240,257.600 230.800 C 257.600 230.360,257.441 230.000,257.247 230.000 C 257.052 230.000,256.787 229.685,256.658 229.300 C 256.528 228.915,256.075 228.006,255.650 227.279 L 254.878 225.958 248.039 232.830 C 241.436 239.466,241.199 239.760,241.182 241.351 C 241.067 251.638,240.192 257.478,238.433 259.703 C 236.882 261.665,235.047 263.600,234.737 263.600 C 234.533 263.600,233.980 263.960,233.508 264.400 C 233.036 264.840,232.334 265.200,231.948 265.200 C 231.563 265.200,231.136 265.380,231.000 265.600 C 230.864 265.820,230.191 266.000,229.505 266.000 C 228.818 266.000,227.652 266.219,226.912 266.486 C 225.857 266.868,225.400 266.868,224.789 266.486 C 224.361 266.219,223.288 266.000,222.405 266.000 C 221.522 266.000,220.800 265.820,220.800 265.600 C 220.800 265.380,220.528 265.200,220.195 265.200 C 219.541 265.200,217.948 264.400,217.564 263.880 C 217.367 263.613,81.200 399.380,81.200 399.845 C 81.200 399.930,117.335 400.000,161.500 400.000 L 241.801 400.000 320.900 320.900 L 400.000 241.799 400.000 161.500 C 400.000 117.335,399.865 81.222,399.700 81.249 C 399.535 81.275,387.267 93.470,372.438 108.349 M290.256 190.629 C 274.185 206.705,273.921 207.024,275.562 208.400 C 275.948 208.724,277.231 210.941,277.471 211.700 C 277.593 212.085,277.819 212.400,277.972 212.400 C 278.125 212.400,278.498 213.030,278.800 213.800 C 279.102 214.570,279.496 215.200,279.675 215.200 C 279.854 215.200,280.000 215.560,280.000 216.000 C 280.000 216.440,280.159 216.800,280.353 216.800 C 280.548 216.800,280.801 217.160,280.916 217.600 C 281.174 218.587,281.936 218.642,282.283 217.700 C 282.425 217.315,282.647 216.910,282.776 216.800 C 282.905 216.690,283.456 215.700,284.000 214.600 C 284.544 213.500,285.082 212.510,285.195 212.400 C 285.587 212.018,286.851 209.796,287.071 209.100 C 287.193 208.715,287.452 208.400,287.647 208.400 C 287.841 208.400,288.000 208.055,288.000 207.633 C 288.000 207.212,288.135 206.807,288.300 206.733 C 288.676 206.566,289.975 204.436,290.271 203.500 C 290.393 203.115,290.652 202.800,290.847 202.800 C 291.041 202.800,291.200 202.440,291.200 202.000 C 291.200 201.560,291.380 201.200,291.600 201.200 C 291.820 201.200,292.000 200.855,292.000 200.433 C 292.000 200.012,292.135 199.607,292.300 199.533 C 292.465 199.460,293.139 198.320,293.798 197.000 C 294.457 195.680,295.091 194.510,295.208 194.400 C 295.324 194.290,295.865 193.345,296.409 192.300 C 296.953 191.255,297.534 190.400,297.699 190.400 C 297.865 190.400,298.000 190.040,298.000 189.600 C 298.000 189.160,298.180 188.800,298.400 188.800 C 298.620 188.800,298.800 188.440,298.800 188.000 C 298.800 187.560,298.980 187.200,299.200 187.200 C 299.420 187.200,299.600 186.840,299.600 186.400 C 299.600 185.960,299.780 185.600,300.000 185.600 C 300.220 185.600,300.400 185.364,300.400 185.075 C 300.400 184.787,300.760 184.164,301.200 183.692 C 301.640 183.220,302.000 182.556,302.000 182.217 C 302.000 181.878,302.180 181.600,302.400 181.600 C 302.620 181.600,302.800 181.240,302.800 180.800 C 302.800 180.360,302.980 180.000,303.200 180.000 C 303.420 180.000,303.600 179.764,303.600 179.475 C 303.600 179.187,303.960 178.564,304.400 178.092 C 304.840 177.620,305.200 176.971,305.200 176.650 C 305.200 176.329,305.425 175.986,305.700 175.888 C 305.975 175.790,306.089 175.589,305.954 175.442 C 305.818 175.294,298.754 182.128,290.256 190.629 " stroke="none" fill="#0458fc" fill-rule="evenodd"></path><path id="path4" d="M320.800 321.010 L 241.800 400.025 289.767 399.912 C 327.704 399.823,337.768 399.695,337.900 399.300 C 337.992 399.025,338.682 398.800,339.433 398.800 C 340.185 398.800,340.800 398.620,340.800 398.400 C 340.800 398.180,341.520 398.000,342.400 398.000 C 343.280 398.000,344.000 397.820,344.000 397.600 C 344.000 397.380,344.619 397.200,345.376 397.200 C 346.133 397.200,346.864 397.020,347.000 396.800 C 347.136 396.580,347.591 396.400,348.011 396.400 C 348.432 396.400,349.417 396.040,350.200 395.600 C 350.983 395.160,351.968 394.800,352.389 394.800 C 352.809 394.800,353.264 394.620,353.400 394.400 C 353.536 394.180,353.997 394.000,354.424 394.000 C 354.851 394.000,355.200 393.820,355.200 393.600 C 355.200 393.380,355.560 393.200,356.000 393.200 C 356.440 393.200,356.800 393.020,356.800 392.800 C 356.800 392.580,357.070 392.400,357.400 392.400 C 357.730 392.400,358.000 392.220,358.000 392.000 C 358.000 391.780,358.360 391.600,358.800 391.600 C 359.240 391.600,359.600 391.420,359.600 391.200 C 359.600 390.980,359.735 390.829,359.900 390.865 C 360.390 390.970,362.301 390.084,362.589 389.618 C 362.735 389.381,363.023 389.291,363.228 389.417 C 363.432 389.544,363.600 389.457,363.600 389.224 C 363.600 388.991,363.836 388.800,364.125 388.800 C 364.413 388.800,365.036 388.440,365.508 388.000 C 365.980 387.560,366.527 387.200,366.724 387.200 C 366.921 387.200,367.646 386.660,368.337 386.000 C 369.028 385.340,369.765 384.800,369.976 384.800 C 370.188 384.800,370.544 384.485,370.768 384.100 C 370.992 383.715,371.181 383.554,371.188 383.742 C 371.195 383.931,371.722 383.526,372.360 382.842 C 372.999 382.159,373.624 381.600,373.751 381.600 C 374.155 381.600,380.800 374.767,380.800 374.352 C 380.800 374.132,380.980 374.064,381.200 374.200 C 381.420 374.336,381.600 374.239,381.600 373.984 C 381.600 373.729,382.102 373.044,382.715 372.460 C 383.329 371.877,384.269 370.770,384.805 370.000 C 385.340 369.230,386.098 368.251,386.489 367.825 C 386.880 367.398,387.200 366.896,387.200 366.708 C 387.200 366.520,387.560 365.980,388.000 365.508 C 388.440 365.036,388.800 364.413,388.800 364.125 C 388.800 363.836,388.991 363.600,389.224 363.600 C 389.457 363.600,389.545 363.435,389.420 363.232 C 389.295 363.030,389.429 362.625,389.719 362.332 C 390.311 361.733,390.960 360.355,390.864 359.900 C 390.829 359.735,390.980 359.600,391.200 359.600 C 391.420 359.600,391.600 359.240,391.600 358.800 C 391.600 358.360,391.780 358.000,392.000 358.000 C 392.220 358.000,392.400 357.730,392.400 357.400 C 392.400 357.070,392.580 356.800,392.800 356.800 C 393.020 356.800,393.200 356.440,393.200 356.000 C 393.200 355.560,393.380 355.200,393.600 355.200 C 393.820 355.200,394.000 354.851,394.000 354.424 C 394.000 353.997,394.180 353.536,394.400 353.400 C 394.620 353.264,394.800 352.809,394.800 352.389 C 394.800 351.968,395.160 350.983,395.600 350.200 C 396.040 349.417,396.400 348.432,396.400 348.011 C 396.400 347.591,396.580 347.136,396.800 347.000 C 397.020 346.864,397.200 346.133,397.200 345.376 C 397.200 344.619,397.380 344.000,397.600 344.000 C 397.820 344.000,398.000 343.460,398.000 342.800 C 398.000 342.140,398.180 341.600,398.400 341.600 C 398.620 341.600,398.800 340.805,398.800 339.833 C 398.800 338.776,399.001 338.000,399.300 337.900 C 399.767 337.744,400.291 260.026,399.917 246.298 L 399.800 241.996 320.800 321.010 " stroke="none" fill="#0447fc" fill-rule="evenodd"></path></g></svg>